<svg width="18" height="19" viewBox="0 0 18 19" fill="none" xmlns="http://www.w3.org/2000/svg">
<g clip-path="url(#clip0)">
<path d="M6.31568 11.5631C4.69196 9.96847 2.46571 8.98304 0.00772466 8.98304C0.0046348 8.98304 0.00154493 8.98304 0 8.98304V6.40456H6.4161V0H11.5839V6.40456H18V11.5631H11.5839V17.9676H8.99923C8.99923 17.9645 8.99923 17.9614 8.99923 17.9599C8.99923 15.5079 8.01356 13.2841 6.4161 11.6648L6.31568 11.5631Z" fill="#F28080"/>
<path d="M0.0247192 15.366V17.9676C1.46305 17.9676 2.62947 17.9661 2.62947 17.9661C2.63102 16.5304 1.4646 15.366 0.0247192 15.366Z" fill="#F28080"/>
<path d="M6.84248 17.9984C6.84248 14.2402 3.79124 11.1945 0.0262451 11.1945V13.227C2.66653 13.227 4.80626 15.3629 4.80626 17.9984H6.84248Z" fill="#F28080"/>
</g>
<defs>
<clipPath id="clip0">
<rect width="18" height="18" fill="white" transform="translate(0 0.263611)"/>
</clipPath>
</defs>
</svg>
